<mxfile host="app.diagrams.net" agent="Mozilla/5.0 (X11; Linux x86_64) AppleWebKit/537.36 (KHTML, like Gecko) Chrome/109.0.0.0 Safari/537.36" version="26.0.3">
  <diagram name="Page-1" id="90a13364-a465-7bf4-72fc-28e22215d7a0">
    <mxGraphModel dx="1912" dy="1035" grid="1" gridSize="10" guides="1" tooltips="1" connect="1" arrows="1" fold="1" page="1" pageScale="1.5" pageWidth="1169" pageHeight="827" background="none" math="0" shadow="0">
      <root>
        <mxCell id="0" style=";html=1;" />
        <mxCell id="1" style=";html=1;" parent="0" />
        <mxCell id="F4LApp7SRapzV72RJLrX-8" value="" style="group" parent="1" vertex="1" connectable="0">
          <mxGeometry x="720" y="700" width="180" height="280" as="geometry" />
        </mxCell>
        <mxCell id="3a17f1ce550125da-2" value="Register&lt;div&gt;File&lt;/div&gt;" style="whiteSpace=wrap;html=1;shadow=1;fontSize=18;fillColor=#f5f5f5;strokeColor=#666666;" parent="F4LApp7SRapzV72RJLrX-8" vertex="1">
          <mxGeometry width="170" height="280" as="geometry" />
        </mxCell>
        <mxCell id="JqTOLJbfiFGYhZ1s0W8t-5" value="Read&amp;nbsp;&lt;div&gt;Address 1&lt;/div&gt;" style="text;html=1;align=left;verticalAlign=middle;whiteSpace=wrap;rounded=0;" parent="F4LApp7SRapzV72RJLrX-8" vertex="1">
          <mxGeometry y="50" width="60" height="20" as="geometry" />
        </mxCell>
        <mxCell id="JqTOLJbfiFGYhZ1s0W8t-8" value="Read&amp;nbsp;&lt;div&gt;Address 2&lt;/div&gt;" style="text;html=1;align=left;verticalAlign=middle;whiteSpace=wrap;rounded=0;" parent="F4LApp7SRapzV72RJLrX-8" vertex="1">
          <mxGeometry y="90" width="60" height="20" as="geometry" />
        </mxCell>
        <mxCell id="JqTOLJbfiFGYhZ1s0W8t-10" value="Write&lt;div&gt;Address&lt;/div&gt;" style="text;html=1;align=left;verticalAlign=middle;whiteSpace=wrap;rounded=0;" parent="F4LApp7SRapzV72RJLrX-8" vertex="1">
          <mxGeometry y="140" width="60" height="40" as="geometry" />
        </mxCell>
        <mxCell id="JqTOLJbfiFGYhZ1s0W8t-13" value="Write&lt;div&gt;Data&lt;/div&gt;" style="text;html=1;align=center;verticalAlign=middle;whiteSpace=wrap;rounded=0;" parent="F4LApp7SRapzV72RJLrX-8" vertex="1">
          <mxGeometry y="240" width="40" height="40" as="geometry" />
        </mxCell>
        <mxCell id="JqTOLJbfiFGYhZ1s0W8t-16" value="RD1" style="text;html=1;align=right;verticalAlign=middle;whiteSpace=wrap;rounded=0;" parent="F4LApp7SRapzV72RJLrX-8" vertex="1">
          <mxGeometry x="140" y="50" width="30" height="20" as="geometry" />
        </mxCell>
        <mxCell id="JqTOLJbfiFGYhZ1s0W8t-17" value="RD2" style="text;html=1;align=right;verticalAlign=middle;whiteSpace=wrap;rounded=0;" parent="F4LApp7SRapzV72RJLrX-8" vertex="1">
          <mxGeometry x="140" y="80" width="30" height="20" as="geometry" />
        </mxCell>
        <mxCell id="JqTOLJbfiFGYhZ1s0W8t-6" style="edgeStyle=orthogonalEdgeStyle;rounded=0;orthogonalLoop=1;jettySize=auto;html=1;exitX=0.5;exitY=1;exitDx=0;exitDy=0;" parent="F4LApp7SRapzV72RJLrX-8" source="JqTOLJbfiFGYhZ1s0W8t-5" target="JqTOLJbfiFGYhZ1s0W8t-5" edge="1">
          <mxGeometry relative="1" as="geometry" />
        </mxCell>
        <mxCell id="zFS1pn2A8cmfrVWvFFyQ-1" value="RegWrite" style="text;html=1;align=center;verticalAlign=middle;whiteSpace=wrap;rounded=0;" parent="F4LApp7SRapzV72RJLrX-8" vertex="1">
          <mxGeometry x="70" width="50" height="20" as="geometry" />
        </mxCell>
        <mxCell id="F4LApp7SRapzV72RJLrX-21" value="" style="group" parent="1" vertex="1" connectable="0">
          <mxGeometry y="480" width="190" height="270" as="geometry" />
        </mxCell>
        <mxCell id="3a17f1ce550125da-8" value="Program&lt;div&gt;Counter&lt;/div&gt;" style="whiteSpace=wrap;html=1;shadow=1;fontSize=18;fillColor=#f5f5f5;strokeColor=#666666;" parent="F4LApp7SRapzV72RJLrX-21" vertex="1">
          <mxGeometry x="80" y="120" width="80" height="150" as="geometry" />
        </mxCell>
        <mxCell id="0RyyWnerKbfPe0gcl8zv-7" value="NextPC" style="text;html=1;align=left;verticalAlign=middle;whiteSpace=wrap;rounded=0;" parent="F4LApp7SRapzV72RJLrX-21" vertex="1">
          <mxGeometry x="80" y="150" width="50" height="20" as="geometry" />
        </mxCell>
        <mxCell id="0RyyWnerKbfPe0gcl8zv-8" value="PC" style="text;html=1;align=right;verticalAlign=middle;whiteSpace=wrap;rounded=0;" parent="F4LApp7SRapzV72RJLrX-21" vertex="1">
          <mxGeometry x="140" y="150" width="20" height="20" as="geometry" />
        </mxCell>
        <mxCell id="zFS1pn2A8cmfrVWvFFyQ-53" value="" style="group" parent="F4LApp7SRapzV72RJLrX-21" vertex="1" connectable="0">
          <mxGeometry x="90" y="40" width="20" height="90" as="geometry" />
        </mxCell>
        <mxCell id="0RyyWnerKbfPe0gcl8zv-11" value="" style="triangle;whiteSpace=wrap;html=1;rotation=90;" parent="zFS1pn2A8cmfrVWvFFyQ-53" vertex="1">
          <mxGeometry x="5" y="75" width="10" height="20" as="geometry" />
        </mxCell>
        <mxCell id="zFS1pn2A8cmfrVWvFFyQ-21" value="" style="edgeStyle=none;orthogonalLoop=1;jettySize=auto;html=1;rounded=0;" parent="zFS1pn2A8cmfrVWvFFyQ-53" edge="1">
          <mxGeometry width="100" relative="1" as="geometry">
            <mxPoint x="10" as="sourcePoint" />
            <mxPoint x="10" y="80" as="targetPoint" />
            <Array as="points" />
          </mxGeometry>
        </mxCell>
        <mxCell id="zFS1pn2A8cmfrVWvFFyQ-25" value="CLK" style="edgeLabel;html=1;align=center;verticalAlign=middle;resizable=0;points=[];" parent="zFS1pn2A8cmfrVWvFFyQ-21" vertex="1" connectable="0">
          <mxGeometry x="-0.0019" relative="1" as="geometry">
            <mxPoint as="offset" />
          </mxGeometry>
        </mxCell>
        <mxCell id="zFS1pn2A8cmfrVWvFFyQ-64" value="" style="group" parent="F4LApp7SRapzV72RJLrX-21" vertex="1" connectable="0">
          <mxGeometry x="119.9" y="40" width="30.099999999999994" height="80" as="geometry" />
        </mxCell>
        <mxCell id="0RyyWnerKbfPe0gcl8zv-13" value="" style="edgeStyle=elbowEdgeStyle;rounded=0;html=1;startArrow=none;startFill=0;jettySize=auto;orthogonalLoop=1;fontSize=18;elbow=vertical;entryX=0.75;entryY=0;entryDx=0;entryDy=0;" parent="zFS1pn2A8cmfrVWvFFyQ-64" edge="1">
          <mxGeometry relative="1" as="geometry">
            <Array as="points">
              <mxPoint y="40" />
            </Array>
            <mxPoint as="sourcePoint" />
            <mxPoint x="5.684341886080802e-14" y="80" as="targetPoint" />
          </mxGeometry>
        </mxCell>
        <mxCell id="zFS1pn2A8cmfrVWvFFyQ-26" value="RST" style="text;html=1;align=center;verticalAlign=middle;resizable=1;points=[];autosize=1;strokeColor=none;fillColor=none;movable=1;rotatable=1;deletable=1;editable=1;locked=0;connectable=1;" parent="zFS1pn2A8cmfrVWvFFyQ-64" vertex="1">
          <mxGeometry x="0.09999999999999432" y="50" width="30" height="20" as="geometry" />
        </mxCell>
        <mxCell id="F4LApp7SRapzV72RJLrX-22" value="" style="group" parent="1" vertex="1" connectable="0">
          <mxGeometry x="190" y="600" width="140" height="150" as="geometry" />
        </mxCell>
        <mxCell id="0RyyWnerKbfPe0gcl8zv-1" value="Instruction&lt;div&gt;Memory&lt;/div&gt;" style="whiteSpace=wrap;html=1;shadow=1;fontSize=18;fillColor=#f5f5f5;strokeColor=#666666;" parent="F4LApp7SRapzV72RJLrX-22" vertex="1">
          <mxGeometry x="10" width="120" height="150" as="geometry" />
        </mxCell>
        <mxCell id="0RyyWnerKbfPe0gcl8zv-3" value="PC" style="text;html=1;align=left;verticalAlign=middle;whiteSpace=wrap;rounded=0;" parent="F4LApp7SRapzV72RJLrX-22" vertex="1">
          <mxGeometry x="10" y="30" width="20" height="20" as="geometry" />
        </mxCell>
        <mxCell id="0RyyWnerKbfPe0gcl8zv-4" value="IM_RD" style="text;html=1;align=center;verticalAlign=middle;whiteSpace=wrap;rounded=0;" parent="F4LApp7SRapzV72RJLrX-22" vertex="1">
          <mxGeometry x="90" y="30" width="40" height="20" as="geometry" />
        </mxCell>
        <mxCell id="F4LApp7SRapzV72RJLrX-58" value="" style="group" parent="1" vertex="1" connectable="0">
          <mxGeometry x="1390" y="640" width="120" height="160" as="geometry" />
        </mxCell>
        <mxCell id="-hvyRLRQOOJ3VwnVLbOB-57" value="ALU" style="whiteSpace=wrap;html=1;shadow=1;fontSize=18;fillColor=#f5f5f5;strokeColor=#666666;resizeWidth=0;comic=0;rotatable=1;treeFolding=0;collapsible=0;dropTarget=0;container=0;noLabel=0;portConstraintRotation=0;gradientColor=none;" parent="F4LApp7SRapzV72RJLrX-58" vertex="1">
          <mxGeometry width="120" height="160" as="geometry" />
        </mxCell>
        <mxCell id="F4LApp7SRapzV72RJLrX-6" value="ALUcontrol" style="text;html=1;align=center;verticalAlign=middle;whiteSpace=wrap;rounded=0;" parent="F4LApp7SRapzV72RJLrX-58" vertex="1">
          <mxGeometry x="30" width="60" height="20" as="geometry" />
        </mxCell>
        <mxCell id="F4LApp7SRapzV72RJLrX-85" value="ALUresult" style="text;html=1;align=right;verticalAlign=middle;whiteSpace=wrap;rounded=0;" parent="F4LApp7SRapzV72RJLrX-58" vertex="1">
          <mxGeometry x="60" y="140" width="60" height="20" as="geometry" />
        </mxCell>
        <mxCell id="laC3dYbV331lfGwgBf-x-6" value="srcA" style="text;html=1;align=left;verticalAlign=middle;whiteSpace=wrap;rounded=0;" parent="F4LApp7SRapzV72RJLrX-58" vertex="1">
          <mxGeometry y="30" width="30" height="20" as="geometry" />
        </mxCell>
        <mxCell id="laC3dYbV331lfGwgBf-x-7" value="srcB" style="text;html=1;align=left;verticalAlign=middle;whiteSpace=wrap;rounded=0;" parent="F4LApp7SRapzV72RJLrX-58" vertex="1">
          <mxGeometry y="50" width="30" height="20" as="geometry" />
        </mxCell>
        <mxCell id="laC3dYbV331lfGwgBf-x-29" value="ALUzero" style="text;html=1;align=right;verticalAlign=middle;whiteSpace=wrap;rounded=0;" parent="F4LApp7SRapzV72RJLrX-58" vertex="1">
          <mxGeometry x="70" y="110" width="50" height="20" as="geometry" />
        </mxCell>
        <mxCell id="F4LApp7SRapzV72RJLrX-61" value="" style="group" parent="1" vertex="1" connectable="0">
          <mxGeometry x="1020" y="500" width="150" height="160" as="geometry" />
        </mxCell>
        <mxCell id="-hvyRLRQOOJ3VwnVLbOB-56" value="ALU&lt;div&gt;Control&lt;/div&gt;" style="whiteSpace=wrap;html=1;shadow=1;fontSize=18;fillColor=#f5f5f5;strokeColor=#666666;" parent="F4LApp7SRapzV72RJLrX-61" vertex="1">
          <mxGeometry x="10" width="140" height="160" as="geometry" />
        </mxCell>
        <mxCell id="-hvyRLRQOOJ3VwnVLbOB-61" value="ALUop" style="text;html=1;align=left;verticalAlign=middle;whiteSpace=wrap;rounded=0;" parent="F4LApp7SRapzV72RJLrX-61" vertex="1">
          <mxGeometry x="10" y="8.421052631578947" width="40" height="16.842105263157894" as="geometry" />
        </mxCell>
        <mxCell id="-hvyRLRQOOJ3VwnVLbOB-64" value="funct3" style="text;html=1;align=left;verticalAlign=middle;whiteSpace=wrap;rounded=0;" parent="F4LApp7SRapzV72RJLrX-61" vertex="1">
          <mxGeometry x="10" y="30" width="40" height="20.53" as="geometry" />
        </mxCell>
        <mxCell id="-hvyRLRQOOJ3VwnVLbOB-65" value="funct7" style="text;html=1;align=left;verticalAlign=middle;whiteSpace=wrap;rounded=0;" parent="F4LApp7SRapzV72RJLrX-61" vertex="1">
          <mxGeometry x="10" y="50.526315789473685" width="40" height="16.842105263157894" as="geometry" />
        </mxCell>
        <mxCell id="F4LApp7SRapzV72RJLrX-1" value="ALUcontrol" style="text;html=1;align=center;verticalAlign=middle;whiteSpace=wrap;rounded=0;" parent="F4LApp7SRapzV72RJLrX-61" vertex="1">
          <mxGeometry x="80" y="110" width="70" height="20" as="geometry" />
        </mxCell>
        <mxCell id="F4LApp7SRapzV72RJLrX-75" style="edgeStyle=orthogonalEdgeStyle;rounded=0;orthogonalLoop=1;jettySize=auto;html=1;entryX=0;entryY=0.5;entryDx=0;entryDy=0;" parent="1" source="F4LApp7SRapzV72RJLrX-56" target="F4LApp7SRapzV72RJLrX-43" edge="1">
          <mxGeometry relative="1" as="geometry">
            <Array as="points">
              <mxPoint x="910" y="380" />
              <mxPoint x="910" y="810" />
            </Array>
          </mxGeometry>
        </mxCell>
        <mxCell id="F4LApp7SRapzV72RJLrX-78" style="edgeStyle=orthogonalEdgeStyle;rounded=0;orthogonalLoop=1;jettySize=auto;html=1;entryX=0.5;entryY=1;entryDx=0;entryDy=0;" parent="1" source="F4LApp7SRapzV72RJLrX-44" target="-hvyRLRQOOJ3VwnVLbOB-43" edge="1">
          <mxGeometry relative="1" as="geometry">
            <mxPoint x="1541" y="910" as="targetPoint" />
            <Array as="points">
              <mxPoint x="1380" y="920" />
              <mxPoint x="1380" y="950" />
            </Array>
          </mxGeometry>
        </mxCell>
        <mxCell id="laC3dYbV331lfGwgBf-x-2" style="edgeStyle=orthogonalEdgeStyle;rounded=0;orthogonalLoop=1;jettySize=auto;html=1;entryX=0.25;entryY=1;entryDx=0;entryDy=0;" parent="1" source="F4LApp7SRapzV72RJLrX-85" target="-hvyRLRQOOJ3VwnVLbOB-43" edge="1">
          <mxGeometry relative="1" as="geometry">
            <Array as="points">
              <mxPoint x="1560" y="790" />
              <mxPoint x="1560" y="915" />
            </Array>
          </mxGeometry>
        </mxCell>
        <mxCell id="laC3dYbV331lfGwgBf-x-4" value="to RegF" style="edgeLabel;html=1;align=center;verticalAlign=middle;resizable=0;points=[];" parent="laC3dYbV331lfGwgBf-x-2" vertex="1" connectable="0">
          <mxGeometry relative="1" as="geometry">
            <mxPoint as="offset" />
          </mxGeometry>
        </mxCell>
        <mxCell id="laC3dYbV331lfGwgBf-x-9" style="edgeStyle=orthogonalEdgeStyle;rounded=0;orthogonalLoop=1;jettySize=auto;html=1;entryX=0;entryY=0.5;entryDx=0;entryDy=0;exitX=0.5;exitY=1;exitDx=0;exitDy=0;" parent="1" source="JqTOLJbfiFGYhZ1s0W8t-13" target="F4LApp7SRapzV72RJLrX-41" edge="1">
          <mxGeometry relative="1" as="geometry">
            <Array as="points">
              <mxPoint x="740" y="1000" />
              <mxPoint x="920" y="1000" />
              <mxPoint x="920" y="920" />
            </Array>
          </mxGeometry>
        </mxCell>
        <mxCell id="laC3dYbV331lfGwgBf-x-13" style="edgeStyle=orthogonalEdgeStyle;rounded=0;orthogonalLoop=1;jettySize=auto;html=1;entryX=0.25;entryY=0;entryDx=0;entryDy=0;" parent="1" source="3a17f1ce550125da-2" target="laC3dYbV331lfGwgBf-x-20" edge="1">
          <mxGeometry relative="1" as="geometry">
            <Array as="points">
              <mxPoint x="960" y="790" />
              <mxPoint x="960" y="740" />
            </Array>
          </mxGeometry>
        </mxCell>
        <mxCell id="laC3dYbV331lfGwgBf-x-32" style="edgeStyle=orthogonalEdgeStyle;rounded=0;orthogonalLoop=1;jettySize=auto;html=1;entryX=0;entryY=0.5;entryDx=0;entryDy=0;" parent="1" source="laC3dYbV331lfGwgBf-x-29" target="laC3dYbV331lfGwgBf-x-28" edge="1">
          <mxGeometry relative="1" as="geometry">
            <Array as="points">
              <mxPoint x="1580" y="760" />
              <mxPoint x="1580" y="380" />
              <mxPoint x="1540" y="380" />
              <mxPoint x="1540" y="200" />
            </Array>
          </mxGeometry>
        </mxCell>
        <mxCell id="laC3dYbV331lfGwgBf-x-34" style="edgeStyle=orthogonalEdgeStyle;rounded=0;orthogonalLoop=1;jettySize=auto;html=1;entryX=0;entryY=0.5;entryDx=0;entryDy=0;" parent="1" source="laC3dYbV331lfGwgBf-x-33" target="laC3dYbV331lfGwgBf-x-11" edge="1">
          <mxGeometry relative="1" as="geometry" />
        </mxCell>
        <mxCell id="MuofbJJSr7D3HssxxxzW-17" style="edgeStyle=orthogonalEdgeStyle;rounded=0;orthogonalLoop=1;jettySize=auto;html=1;entryX=0;entryY=0.5;entryDx=0;entryDy=0;" parent="1" source="0RyyWnerKbfPe0gcl8zv-8" target="jQQxH6LwXFBK_Qau7PEY-24" edge="1">
          <mxGeometry relative="1" as="geometry">
            <Array as="points">
              <mxPoint x="180" y="640" />
              <mxPoint x="180" y="280" />
            </Array>
          </mxGeometry>
        </mxCell>
        <mxCell id="s6hKSkpy---ewfnxM8lV-12" style="edgeStyle=orthogonalEdgeStyle;rounded=0;orthogonalLoop=1;jettySize=auto;html=1;entryX=0;entryY=0.5;entryDx=0;entryDy=0;exitX=1;exitY=0.5;exitDx=0;exitDy=0;" parent="1" source="s6hKSkpy---ewfnxM8lV-11" target="jQQxH6LwXFBK_Qau7PEY-28" edge="1">
          <mxGeometry relative="1" as="geometry">
            <Array as="points">
              <mxPoint x="1680" y="220" />
              <mxPoint x="1680" y="120" />
              <mxPoint x="160" y="120" />
              <mxPoint x="160" y="240" />
            </Array>
          </mxGeometry>
        </mxCell>
        <mxCell id="s6hKSkpy---ewfnxM8lV-23" style="edgeStyle=orthogonalEdgeStyle;rounded=0;orthogonalLoop=1;jettySize=auto;html=1;entryX=0;entryY=0.5;entryDx=0;entryDy=0;" parent="1" source="F4LApp7SRapzV72RJLrX-85" target="jQQxH6LwXFBK_Qau7PEY-27" edge="1">
          <mxGeometry relative="1" as="geometry">
            <Array as="points">
              <mxPoint x="1540" y="790" />
              <mxPoint x="1540" y="480" />
              <mxPoint x="190" y="480" />
              <mxPoint x="190" y="380" />
            </Array>
            <mxPoint x="211" y="410" as="targetPoint" />
          </mxGeometry>
        </mxCell>
        <mxCell id="s6hKSkpy---ewfnxM8lV-34" style="edgeStyle=orthogonalEdgeStyle;rounded=0;orthogonalLoop=1;jettySize=auto;html=1;entryX=0.75;entryY=1;entryDx=0;entryDy=0;exitX=1;exitY=0.5;exitDx=0;exitDy=0;" parent="1" source="s6hKSkpy---ewfnxM8lV-31" target="-hvyRLRQOOJ3VwnVLbOB-43" edge="1">
          <mxGeometry relative="1" as="geometry">
            <Array as="points">
              <mxPoint x="660" y="840" />
              <mxPoint x="660" y="1020" />
              <mxPoint x="1560" y="1020" />
              <mxPoint x="1560" y="985" />
            </Array>
          </mxGeometry>
        </mxCell>
        <mxCell id="q9rqpO51LhmBKndgSOn--3" value="" style="group" parent="1" vertex="1" connectable="0">
          <mxGeometry x="1290" y="710" width="60" height="80" as="geometry" />
        </mxCell>
        <mxCell id="laC3dYbV331lfGwgBf-x-11" value="" style="shape=trapezoid;perimeter=trapezoidPerimeter;whiteSpace=wrap;html=1;fixedSize=1;shadow=1;strokeColor=#666666;align=center;verticalAlign=middle;fontFamily=Helvetica;fontSize=18;fontColor=default;fillColor=#f5f5f5;rotation=90;" parent="q9rqpO51LhmBKndgSOn--3" vertex="1">
          <mxGeometry x="-10" y="30" width="80" height="30" as="geometry" />
        </mxCell>
        <mxCell id="laC3dYbV331lfGwgBf-x-20" value="00&lt;div&gt;&lt;br&gt;&lt;div&gt;01&lt;/div&gt;&lt;/div&gt;" style="text;html=1;align=center;verticalAlign=middle;whiteSpace=wrap;rounded=0;" parent="q9rqpO51LhmBKndgSOn--3" vertex="1">
          <mxGeometry y="30" width="60" height="30" as="geometry" />
        </mxCell>
        <mxCell id="q9rqpO51LhmBKndgSOn--12" style="edgeStyle=orthogonalEdgeStyle;rounded=0;orthogonalLoop=1;jettySize=auto;html=1;entryX=0;entryY=0.5;entryDx=0;entryDy=0;" parent="1" source="q9rqpO51LhmBKndgSOn--2" target="q9rqpO51LhmBKndgSOn--5" edge="1">
          <mxGeometry relative="1" as="geometry" />
        </mxCell>
        <mxCell id="q9rqpO51LhmBKndgSOn--22" style="edgeStyle=orthogonalEdgeStyle;rounded=0;orthogonalLoop=1;jettySize=auto;html=1;entryX=0;entryY=0.5;entryDx=0;entryDy=0;" parent="1" source="-hvyRLRQOOJ3VwnVLbOB-8" target="JqTOLJbfiFGYhZ1s0W8t-8" edge="1">
          <mxGeometry relative="1" as="geometry">
            <Array as="points">
              <mxPoint x="680" y="670" />
              <mxPoint x="680" y="800" />
              <mxPoint x="720" y="800" />
            </Array>
          </mxGeometry>
        </mxCell>
        <mxCell id="q9rqpO51LhmBKndgSOn--23" style="edgeStyle=orthogonalEdgeStyle;rounded=0;orthogonalLoop=1;jettySize=auto;html=1;entryX=0;entryY=0.5;entryDx=0;entryDy=0;" parent="1" source="-hvyRLRQOOJ3VwnVLbOB-9" target="JqTOLJbfiFGYhZ1s0W8t-10" edge="1">
          <mxGeometry relative="1" as="geometry">
            <Array as="points">
              <mxPoint x="670" y="700" />
              <mxPoint x="670" y="860" />
            </Array>
          </mxGeometry>
        </mxCell>
        <mxCell id="q9rqpO51LhmBKndgSOn--25" style="edgeStyle=orthogonalEdgeStyle;rounded=0;orthogonalLoop=1;jettySize=auto;html=1;entryX=0;entryY=0.5;entryDx=0;entryDy=0;" parent="1" source="-hvyRLRQOOJ3VwnVLbOB-59" target="-hvyRLRQOOJ3VwnVLbOB-61" edge="1">
          <mxGeometry relative="1" as="geometry">
            <Array as="points">
              <mxPoint x="1000" y="270" />
              <mxPoint x="1000" y="517" />
            </Array>
            <mxPoint x="1030" y="500" as="targetPoint" />
          </mxGeometry>
        </mxCell>
        <mxCell id="q9rqpO51LhmBKndgSOn--27" value="" style="group" parent="1" vertex="1" connectable="0">
          <mxGeometry x="220" y="200" width="120" height="260" as="geometry" />
        </mxCell>
        <mxCell id="jQQxH6LwXFBK_Qau7PEY-23" value="PC_Control&lt;div&gt;Unit&lt;/div&gt;" style="whiteSpace=wrap;html=1;shadow=1;fontSize=18;fillColor=#f5f5f5;strokeColor=#666666;" parent="q9rqpO51LhmBKndgSOn--27" vertex="1">
          <mxGeometry width="120" height="260" as="geometry" />
        </mxCell>
        <mxCell id="jQQxH6LwXFBK_Qau7PEY-24" value="PC" style="text;html=1;align=left;verticalAlign=middle;whiteSpace=wrap;rounded=0;" parent="q9rqpO51LhmBKndgSOn--27" vertex="1">
          <mxGeometry y="70" width="20" height="20" as="geometry" />
        </mxCell>
        <mxCell id="jQQxH6LwXFBK_Qau7PEY-25" value="Jump" style="text;html=1;align=left;verticalAlign=middle;whiteSpace=wrap;rounded=0;" parent="q9rqpO51LhmBKndgSOn--27" vertex="1">
          <mxGeometry y="10" width="40" height="20" as="geometry" />
        </mxCell>
        <mxCell id="jQQxH6LwXFBK_Qau7PEY-26" value="J_Target" style="text;html=1;align=left;verticalAlign=middle;whiteSpace=wrap;rounded=0;" parent="q9rqpO51LhmBKndgSOn--27" vertex="1">
          <mxGeometry y="190" width="50" height="20" as="geometry" />
        </mxCell>
        <mxCell id="jQQxH6LwXFBK_Qau7PEY-27" value="B_Target" style="text;html=1;align=left;verticalAlign=middle;whiteSpace=wrap;rounded=0;" parent="q9rqpO51LhmBKndgSOn--27" vertex="1">
          <mxGeometry y="170" width="60" height="20" as="geometry" />
        </mxCell>
        <mxCell id="jQQxH6LwXFBK_Qau7PEY-28" value="BTaken" style="text;html=1;align=left;verticalAlign=middle;whiteSpace=wrap;rounded=0;" parent="q9rqpO51LhmBKndgSOn--27" vertex="1">
          <mxGeometry y="30" width="50" height="20" as="geometry" />
        </mxCell>
        <mxCell id="jQQxH6LwXFBK_Qau7PEY-29" value="NextPC" style="text;html=1;align=right;verticalAlign=middle;whiteSpace=wrap;rounded=0;" parent="q9rqpO51LhmBKndgSOn--27" vertex="1">
          <mxGeometry x="96" y="30" width="24" height="20" as="geometry" />
        </mxCell>
        <mxCell id="q9rqpO51LhmBKndgSOn--36" style="edgeStyle=orthogonalEdgeStyle;rounded=0;orthogonalLoop=1;jettySize=auto;html=1;entryX=0.5;entryY=0;entryDx=0;entryDy=0;exitX=1;exitY=0.5;exitDx=0;exitDy=0;" parent="1" source="F4LApp7SRapzV72RJLrX-73" target="F4LApp7SRapzV72RJLrX-42" edge="1">
          <mxGeometry relative="1" as="geometry">
            <Array as="points">
              <mxPoint x="930" y="360" />
              <mxPoint x="930" y="640" />
              <mxPoint x="1010" y="640" />
            </Array>
          </mxGeometry>
        </mxCell>
        <mxCell id="zFS1pn2A8cmfrVWvFFyQ-2" style="edgeStyle=orthogonalEdgeStyle;rounded=0;orthogonalLoop=1;jettySize=auto;html=1;entryX=0.384;entryY=0.014;entryDx=0;entryDy=0;entryPerimeter=0;" parent="1" source="-hvyRLRQOOJ3VwnVLbOB-48" target="zFS1pn2A8cmfrVWvFFyQ-1" edge="1">
          <mxGeometry relative="1" as="geometry">
            <Array as="points">
              <mxPoint x="810" y="580" />
              <mxPoint x="810" y="580" />
            </Array>
          </mxGeometry>
        </mxCell>
        <mxCell id="zFS1pn2A8cmfrVWvFFyQ-9" style="edgeStyle=orthogonalEdgeStyle;rounded=0;orthogonalLoop=1;jettySize=auto;html=1;entryX=0;entryY=0.5;entryDx=0;entryDy=0;" parent="1" source="-hvyRLRQOOJ3VwnVLbOB-11" target="-hvyRLRQOOJ3VwnVLbOB-64" edge="1">
          <mxGeometry relative="1" as="geometry">
            <mxPoint x="1030" y="530" as="targetPoint" />
            <Array as="points">
              <mxPoint x="660" y="570" />
              <mxPoint x="660" y="540" />
            </Array>
          </mxGeometry>
        </mxCell>
        <mxCell id="zFS1pn2A8cmfrVWvFFyQ-10" style="edgeStyle=orthogonalEdgeStyle;rounded=0;orthogonalLoop=1;jettySize=auto;html=1;entryX=0;entryY=0.5;entryDx=0;entryDy=0;" parent="1" source="-hvyRLRQOOJ3VwnVLbOB-12" target="-hvyRLRQOOJ3VwnVLbOB-65" edge="1">
          <mxGeometry relative="1" as="geometry">
            <Array as="points">
              <mxPoint x="680" y="590" />
              <mxPoint x="680" y="559" />
            </Array>
          </mxGeometry>
        </mxCell>
        <mxCell id="zFS1pn2A8cmfrVWvFFyQ-11" style="edgeStyle=orthogonalEdgeStyle;rounded=0;orthogonalLoop=1;jettySize=auto;html=1;entryX=0;entryY=0.5;entryDx=0;entryDy=0;exitX=1;exitY=0.5;exitDx=0;exitDy=0;" parent="1" source="-hvyRLRQOOJ3VwnVLbOB-6" target="-hvyRLRQOOJ3VwnVLbOB-49" edge="1">
          <mxGeometry relative="1" as="geometry">
            <mxPoint x="660" y="250" as="targetPoint" />
            <Array as="points">
              <mxPoint x="640" y="540" />
              <mxPoint x="640" y="250" />
            </Array>
            <mxPoint x="550" y="540" as="sourcePoint" />
          </mxGeometry>
        </mxCell>
        <mxCell id="zFS1pn2A8cmfrVWvFFyQ-12" style="edgeStyle=orthogonalEdgeStyle;rounded=0;orthogonalLoop=1;jettySize=auto;html=1;entryX=0;entryY=0.5;entryDx=0;entryDy=0;exitX=1;exitY=0.5;exitDx=0;exitDy=0;" parent="1" source="s6hKSkpy---ewfnxM8lV-1" target="jQQxH6LwXFBK_Qau7PEY-25" edge="1">
          <mxGeometry relative="1" as="geometry">
            <Array as="points">
              <mxPoint x="880" y="220" />
              <mxPoint x="880" y="160" />
              <mxPoint x="200" y="160" />
              <mxPoint x="200" y="220" />
            </Array>
          </mxGeometry>
        </mxCell>
        <mxCell id="zFS1pn2A8cmfrVWvFFyQ-14" style="edgeStyle=orthogonalEdgeStyle;rounded=0;orthogonalLoop=1;jettySize=auto;html=1;entryX=0;entryY=0.5;entryDx=0;entryDy=0;" parent="1" source="laC3dYbV331lfGwgBf-x-40" target="laC3dYbV331lfGwgBf-x-42" edge="1">
          <mxGeometry relative="1" as="geometry">
            <Array as="points">
              <mxPoint x="1520" y="240" />
              <mxPoint x="1520" y="223" />
            </Array>
          </mxGeometry>
        </mxCell>
        <mxCell id="zFS1pn2A8cmfrVWvFFyQ-16" style="edgeStyle=orthogonalEdgeStyle;rounded=0;orthogonalLoop=1;jettySize=auto;html=1;entryX=0.082;entryY=0.4;entryDx=0;entryDy=0;entryPerimeter=0;exitX=1;exitY=0.5;exitDx=0;exitDy=0;" parent="1" source="laC3dYbV331lfGwgBf-x-37" target="-hvyRLRQOOJ3VwnVLbOB-43" edge="1">
          <mxGeometry relative="1" as="geometry">
            <mxPoint x="1660" y="890" as="targetPoint" />
            <Array as="points">
              <mxPoint x="1660" y="400" />
            </Array>
          </mxGeometry>
        </mxCell>
        <mxCell id="zFS1pn2A8cmfrVWvFFyQ-17" style="edgeStyle=orthogonalEdgeStyle;rounded=0;orthogonalLoop=1;jettySize=auto;html=1;entryX=0;entryY=0.5;entryDx=0;entryDy=0;" parent="1" source="F4LApp7SRapzV72RJLrX-92" target="JqTOLJbfiFGYhZ1s0W8t-13" edge="1">
          <mxGeometry relative="1" as="geometry">
            <Array as="points">
              <mxPoint x="1720" y="950" />
              <mxPoint x="1720" y="1060" />
              <mxPoint x="700" y="1060" />
              <mxPoint x="700" y="960" />
            </Array>
          </mxGeometry>
        </mxCell>
        <mxCell id="zFS1pn2A8cmfrVWvFFyQ-18" style="edgeStyle=orthogonalEdgeStyle;rounded=0;orthogonalLoop=1;jettySize=auto;html=1;entryX=0;entryY=0.5;entryDx=0;entryDy=0;" parent="1" source="0RyyWnerKbfPe0gcl8zv-4" target="-hvyRLRQOOJ3VwnVLbOB-2" edge="1">
          <mxGeometry relative="1" as="geometry" />
        </mxCell>
        <mxCell id="zFS1pn2A8cmfrVWvFFyQ-27" style="edgeStyle=orthogonalEdgeStyle;rounded=0;orthogonalLoop=1;jettySize=auto;html=1;entryX=0;entryY=0.5;entryDx=0;entryDy=0;" parent="1" source="0RyyWnerKbfPe0gcl8zv-8" target="0RyyWnerKbfPe0gcl8zv-3" edge="1">
          <mxGeometry relative="1" as="geometry" />
        </mxCell>
        <mxCell id="zFS1pn2A8cmfrVWvFFyQ-28" style="edgeStyle=orthogonalEdgeStyle;rounded=0;orthogonalLoop=1;jettySize=auto;html=1;entryX=0;entryY=0.5;entryDx=0;entryDy=0;" parent="1" source="0RyyWnerKbfPe0gcl8zv-8" target="zFS1pn2A8cmfrVWvFFyQ-44" edge="1">
          <mxGeometry relative="1" as="geometry">
            <Array as="points">
              <mxPoint x="180" y="640" />
              <mxPoint x="180" y="1080" />
              <mxPoint x="1220" y="1080" />
              <mxPoint x="1220" y="690" />
            </Array>
          </mxGeometry>
        </mxCell>
        <mxCell id="zFS1pn2A8cmfrVWvFFyQ-76" value="to ALUsrcA" style="edgeLabel;html=1;align=center;verticalAlign=middle;resizable=0;points=[];" parent="zFS1pn2A8cmfrVWvFFyQ-28" vertex="1" connectable="0">
          <mxGeometry x="-0.7499" y="-3" relative="1" as="geometry">
            <mxPoint as="offset" />
          </mxGeometry>
        </mxCell>
        <mxCell id="zFS1pn2A8cmfrVWvFFyQ-30" style="edgeStyle=orthogonalEdgeStyle;rounded=0;orthogonalLoop=1;jettySize=auto;html=1;entryX=0;entryY=0.5;entryDx=0;entryDy=0;" parent="1" source="0RyyWnerKbfPe0gcl8zv-8" target="s6hKSkpy---ewfnxM8lV-30" edge="1">
          <mxGeometry relative="1" as="geometry">
            <Array as="points">
              <mxPoint x="180" y="640" />
              <mxPoint x="180" y="840" />
            </Array>
          </mxGeometry>
        </mxCell>
        <mxCell id="zFS1pn2A8cmfrVWvFFyQ-33" value="" style="group" parent="1" vertex="1" connectable="0">
          <mxGeometry x="220" y="810" width="90" height="120" as="geometry" />
        </mxCell>
        <mxCell id="s6hKSkpy---ewfnxM8lV-29" value="PCplus4&lt;div&gt;(+)&lt;/div&gt;" style="whiteSpace=wrap;html=1;shadow=1;fontSize=18;fillColor=#f5f5f5;strokeColor=#666666;" parent="zFS1pn2A8cmfrVWvFFyQ-33" vertex="1">
          <mxGeometry x="20" width="70" height="120" as="geometry" />
        </mxCell>
        <mxCell id="s6hKSkpy---ewfnxM8lV-30" value="PC" style="text;html=1;align=left;verticalAlign=middle;whiteSpace=wrap;rounded=0;" parent="zFS1pn2A8cmfrVWvFFyQ-33" vertex="1">
          <mxGeometry x="20" y="20" width="20" height="20" as="geometry" />
        </mxCell>
        <mxCell id="s6hKSkpy---ewfnxM8lV-31" value="PC+4" style="text;html=1;align=right;verticalAlign=middle;whiteSpace=wrap;rounded=0;" parent="zFS1pn2A8cmfrVWvFFyQ-33" vertex="1">
          <mxGeometry x="60" y="20" width="30" height="20" as="geometry" />
        </mxCell>
        <mxCell id="s6hKSkpy---ewfnxM8lV-32" value="4" style="text;html=1;align=left;verticalAlign=middle;whiteSpace=wrap;rounded=0;" parent="zFS1pn2A8cmfrVWvFFyQ-33" vertex="1">
          <mxGeometry x="20" y="100" width="10" height="20" as="geometry" />
        </mxCell>
        <mxCell id="zFS1pn2A8cmfrVWvFFyQ-32" value="" style="endArrow=classic;html=1;rounded=0;entryX=0;entryY=0.5;entryDx=0;entryDy=0;" parent="zFS1pn2A8cmfrVWvFFyQ-33" target="s6hKSkpy---ewfnxM8lV-32" edge="1">
          <mxGeometry width="50" height="50" relative="1" as="geometry">
            <mxPoint x="-20" y="110" as="sourcePoint" />
            <mxPoint x="220" y="-20" as="targetPoint" />
          </mxGeometry>
        </mxCell>
        <mxCell id="zFS1pn2A8cmfrVWvFFyQ-35" style="edgeStyle=orthogonalEdgeStyle;rounded=0;orthogonalLoop=1;jettySize=auto;html=1;entryX=0;entryY=0.5;entryDx=0;entryDy=0;" parent="1" source="jQQxH6LwXFBK_Qau7PEY-29" target="0RyyWnerKbfPe0gcl8zv-7" edge="1">
          <mxGeometry relative="1" as="geometry">
            <Array as="points">
              <mxPoint x="380" y="240" />
              <mxPoint x="380" y="500" />
              <mxPoint x="60" y="500" />
              <mxPoint x="60" y="640" />
            </Array>
          </mxGeometry>
        </mxCell>
        <mxCell id="zFS1pn2A8cmfrVWvFFyQ-36" style="edgeStyle=orthogonalEdgeStyle;rounded=0;orthogonalLoop=1;jettySize=auto;html=1;entryX=0.75;entryY=1;entryDx=0;entryDy=0;exitX=0.5;exitY=1;exitDx=0;exitDy=0;" parent="1" source="laC3dYbV331lfGwgBf-x-17" target="laC3dYbV331lfGwgBf-x-11" edge="1">
          <mxGeometry relative="1" as="geometry">
            <Array as="points">
              <mxPoint x="560" y="1040" />
              <mxPoint x="1260" y="1040" />
              <mxPoint x="1260" y="775" />
            </Array>
          </mxGeometry>
        </mxCell>
        <mxCell id="zFS1pn2A8cmfrVWvFFyQ-38" style="edgeStyle=orthogonalEdgeStyle;rounded=0;orthogonalLoop=1;jettySize=auto;html=1;entryX=0;entryY=0.5;entryDx=0;entryDy=0;" parent="1" source="-hvyRLRQOOJ3VwnVLbOB-7" target="JqTOLJbfiFGYhZ1s0W8t-5" edge="1">
          <mxGeometry relative="1" as="geometry">
            <Array as="points">
              <mxPoint x="700" y="640" />
              <mxPoint x="700" y="760" />
            </Array>
          </mxGeometry>
        </mxCell>
        <mxCell id="zFS1pn2A8cmfrVWvFFyQ-41" style="edgeStyle=orthogonalEdgeStyle;rounded=0;orthogonalLoop=1;jettySize=auto;html=1;entryX=0;entryY=0.5;entryDx=0;entryDy=0;" parent="1" source="F4LApp7SRapzV72RJLrX-85" target="F4LApp7SRapzV72RJLrX-40" edge="1">
          <mxGeometry relative="1" as="geometry">
            <Array as="points">
              <mxPoint x="1480" y="1000" />
              <mxPoint x="960" y="1000" />
              <mxPoint x="960" y="940" />
            </Array>
          </mxGeometry>
        </mxCell>
        <mxCell id="zFS1pn2A8cmfrVWvFFyQ-75" value="to DM" style="edgeLabel;html=1;align=center;verticalAlign=middle;resizable=0;points=[];" parent="zFS1pn2A8cmfrVWvFFyQ-41" vertex="1" connectable="0">
          <mxGeometry x="-0.9337" y="-2" relative="1" as="geometry">
            <mxPoint as="offset" />
          </mxGeometry>
        </mxCell>
        <mxCell id="zFS1pn2A8cmfrVWvFFyQ-45" style="edgeStyle=orthogonalEdgeStyle;rounded=0;orthogonalLoop=1;jettySize=auto;html=1;entryX=0;entryY=0.5;entryDx=0;entryDy=0;" parent="1" source="JqTOLJbfiFGYhZ1s0W8t-16" target="q9rqpO51LhmBKndgSOn--6" edge="1">
          <mxGeometry relative="1" as="geometry">
            <Array as="points">
              <mxPoint x="940" y="760" />
              <mxPoint x="940" y="680" />
              <mxPoint x="1200" y="680" />
              <mxPoint x="1200" y="670" />
            </Array>
          </mxGeometry>
        </mxCell>
        <mxCell id="zFS1pn2A8cmfrVWvFFyQ-49" style="edgeStyle=orthogonalEdgeStyle;rounded=0;orthogonalLoop=1;jettySize=auto;html=1;entryX=0;entryY=0.5;entryDx=0;entryDy=0;" parent="1" source="q9rqpO51LhmBKndgSOn--5" target="laC3dYbV331lfGwgBf-x-6" edge="1">
          <mxGeometry relative="1" as="geometry" />
        </mxCell>
        <mxCell id="zFS1pn2A8cmfrVWvFFyQ-52" style="edgeStyle=orthogonalEdgeStyle;rounded=0;orthogonalLoop=1;jettySize=auto;html=1;entryX=0;entryY=0.5;entryDx=0;entryDy=0;exitX=0.5;exitY=0;exitDx=0;exitDy=0;" parent="1" source="laC3dYbV331lfGwgBf-x-11" target="laC3dYbV331lfGwgBf-x-7" edge="1">
          <mxGeometry relative="1" as="geometry">
            <Array as="points">
              <mxPoint x="1360" y="755" />
              <mxPoint x="1360" y="700" />
            </Array>
          </mxGeometry>
        </mxCell>
        <mxCell id="zFS1pn2A8cmfrVWvFFyQ-69" value="" style="group" parent="1" vertex="1" connectable="0">
          <mxGeometry x="1240.005" y="646.665" width="20.00499999999988" height="66.67000000000007" as="geometry" />
        </mxCell>
        <mxCell id="q9rqpO51LhmBKndgSOn--5" value="" style="shape=trapezoid;perimeter=trapezoidPerimeter;whiteSpace=wrap;html=1;fixedSize=1;shadow=1;strokeColor=#666666;align=center;verticalAlign=middle;fontFamily=Helvetica;fontSize=18;fontColor=default;fillColor=#f5f5f5;rotation=90;" parent="zFS1pn2A8cmfrVWvFFyQ-69" vertex="1">
          <mxGeometry x="-23.335000000000036" y="23.335000000000036" width="66.67" height="20" as="geometry" />
        </mxCell>
        <mxCell id="q9rqpO51LhmBKndgSOn--6" value="00" style="text;html=1;align=center;verticalAlign=middle;whiteSpace=wrap;rounded=0;" parent="zFS1pn2A8cmfrVWvFFyQ-69" vertex="1">
          <mxGeometry x="0.004999999999881766" y="13.335000000000036" width="20" height="20" as="geometry" />
        </mxCell>
        <mxCell id="zFS1pn2A8cmfrVWvFFyQ-44" value="01" style="text;html=1;align=center;verticalAlign=middle;whiteSpace=wrap;rounded=0;" parent="zFS1pn2A8cmfrVWvFFyQ-69" vertex="1">
          <mxGeometry x="0.004999999999881766" y="33.335000000000036" width="20" height="20" as="geometry" />
        </mxCell>
        <mxCell id="zFS1pn2A8cmfrVWvFFyQ-73" value="" style="group" parent="1" vertex="1" connectable="0">
          <mxGeometry x="980" y="710" width="130" height="250" as="geometry" />
        </mxCell>
        <mxCell id="F4LApp7SRapzV72RJLrX-57" value="" style="group" parent="zFS1pn2A8cmfrVWvFFyQ-73" vertex="1" connectable="0">
          <mxGeometry y="50" width="120" height="200" as="geometry" />
        </mxCell>
        <mxCell id="3a17f1ce550125da-4" value="Data&lt;div&gt;Memory&lt;/div&gt;" style="whiteSpace=wrap;html=1;shadow=1;fontSize=18;fillColor=#f5f5f5;strokeColor=#666666;" parent="F4LApp7SRapzV72RJLrX-57" vertex="1">
          <mxGeometry width="120" height="200" as="geometry" />
        </mxCell>
        <mxCell id="F4LApp7SRapzV72RJLrX-40" value="Address" style="text;html=1;align=center;verticalAlign=middle;whiteSpace=wrap;rounded=0;" parent="F4LApp7SRapzV72RJLrX-57" vertex="1">
          <mxGeometry y="170" width="50" height="20" as="geometry" />
        </mxCell>
        <mxCell id="F4LApp7SRapzV72RJLrX-41" value="WriteData" style="text;html=1;align=center;verticalAlign=middle;whiteSpace=wrap;rounded=0;" parent="F4LApp7SRapzV72RJLrX-57" vertex="1">
          <mxGeometry y="150" width="60" height="20" as="geometry" />
        </mxCell>
        <mxCell id="F4LApp7SRapzV72RJLrX-42" value="MemWrite" style="text;html=1;align=center;verticalAlign=middle;whiteSpace=wrap;rounded=0;" parent="F4LApp7SRapzV72RJLrX-57" vertex="1">
          <mxGeometry width="60" height="20" as="geometry" />
        </mxCell>
        <mxCell id="F4LApp7SRapzV72RJLrX-43" value="MemRead" style="text;html=1;align=center;verticalAlign=middle;whiteSpace=wrap;rounded=0;" parent="F4LApp7SRapzV72RJLrX-57" vertex="1">
          <mxGeometry y="40" width="60" height="20" as="geometry" />
        </mxCell>
        <mxCell id="F4LApp7SRapzV72RJLrX-44" value="DM_RD" style="text;html=1;align=center;verticalAlign=middle;whiteSpace=wrap;rounded=0;" parent="F4LApp7SRapzV72RJLrX-57" vertex="1">
          <mxGeometry x="70" y="150" width="50" height="20" as="geometry" />
        </mxCell>
        <mxCell id="zFS1pn2A8cmfrVWvFFyQ-63" value="" style="group" parent="zFS1pn2A8cmfrVWvFFyQ-73" vertex="1" connectable="0">
          <mxGeometry x="70" width="20" height="60" as="geometry" />
        </mxCell>
        <mxCell id="zFS1pn2A8cmfrVWvFFyQ-59" value="" style="triangle;whiteSpace=wrap;html=1;rotation=90;" parent="zFS1pn2A8cmfrVWvFFyQ-63" vertex="1">
          <mxGeometry x="5" y="45" width="10" height="20" as="geometry" />
        </mxCell>
        <mxCell id="zFS1pn2A8cmfrVWvFFyQ-60" value="" style="edgeStyle=none;orthogonalLoop=1;jettySize=auto;html=1;rounded=0;" parent="zFS1pn2A8cmfrVWvFFyQ-63" edge="1">
          <mxGeometry width="100" relative="1" as="geometry">
            <mxPoint x="10" y="-10" as="sourcePoint" />
            <mxPoint x="10" y="50" as="targetPoint" />
            <Array as="points" />
          </mxGeometry>
        </mxCell>
        <mxCell id="zFS1pn2A8cmfrVWvFFyQ-61" value="CLK" style="edgeLabel;html=1;align=center;verticalAlign=middle;resizable=0;points=[];" parent="zFS1pn2A8cmfrVWvFFyQ-60" vertex="1" connectable="0">
          <mxGeometry x="-0.0019" relative="1" as="geometry">
            <mxPoint y="-5" as="offset" />
          </mxGeometry>
        </mxCell>
        <mxCell id="zFS1pn2A8cmfrVWvFFyQ-68" value="" style="group" parent="zFS1pn2A8cmfrVWvFFyQ-73" vertex="1" connectable="0">
          <mxGeometry x="99.95000000000005" width="30.049999999999955" height="50" as="geometry" />
        </mxCell>
        <mxCell id="zFS1pn2A8cmfrVWvFFyQ-66" value="" style="edgeStyle=elbowEdgeStyle;rounded=0;html=1;startArrow=none;startFill=0;jettySize=auto;orthogonalLoop=1;fontSize=18;elbow=vertical;entryX=0.75;entryY=0;entryDx=0;entryDy=0;" parent="zFS1pn2A8cmfrVWvFFyQ-68" edge="1">
          <mxGeometry relative="1" as="geometry">
            <Array as="points">
              <mxPoint y="10" />
            </Array>
            <mxPoint x="0.049999999999954525" y="-10" as="sourcePoint" />
            <mxPoint y="50" as="targetPoint" />
          </mxGeometry>
        </mxCell>
        <mxCell id="zFS1pn2A8cmfrVWvFFyQ-67" value="RST" style="text;html=1;align=center;verticalAlign=middle;resizable=1;points=[];autosize=1;strokeColor=none;fillColor=none;movable=1;rotatable=1;deletable=1;editable=1;locked=0;connectable=1;" parent="zFS1pn2A8cmfrVWvFFyQ-68" vertex="1">
          <mxGeometry y="10" width="30" height="10" as="geometry" />
        </mxCell>
        <mxCell id="zFS1pn2A8cmfrVWvFFyQ-78" style="edgeStyle=orthogonalEdgeStyle;rounded=0;orthogonalLoop=1;jettySize=auto;html=1;entryX=0.5;entryY=0;entryDx=0;entryDy=0;" parent="1" source="F4LApp7SRapzV72RJLrX-1" target="F4LApp7SRapzV72RJLrX-6" edge="1">
          <mxGeometry relative="1" as="geometry" />
        </mxCell>
        <mxCell id="zFS1pn2A8cmfrVWvFFyQ-79" style="edgeStyle=orthogonalEdgeStyle;rounded=0;orthogonalLoop=1;jettySize=auto;html=1;entryX=0;entryY=0.5;entryDx=0;entryDy=0;" parent="1" source="-hvyRLRQOOJ3VwnVLbOB-11" target="q9rqpO51LhmBKndgSOn--34" edge="1">
          <mxGeometry relative="1" as="geometry">
            <Array as="points">
              <mxPoint x="660" y="570" />
              <mxPoint x="660" y="540" />
              <mxPoint x="980" y="540" />
              <mxPoint x="980" y="340" />
            </Array>
          </mxGeometry>
        </mxCell>
        <mxCell id="-hvyRLRQOOJ3VwnVLbOB-44" value="&lt;div&gt;&lt;br&gt;&lt;/div&gt;" style="text;html=1;align=center;verticalAlign=middle;whiteSpace=wrap;rounded=0;fontFamily=Helvetica;fontSize=18;fontColor=default;container=0;" parent="1" vertex="1">
          <mxGeometry x="1600" y="950" width="60" height="30" as="geometry" />
        </mxCell>
        <mxCell id="-hvyRLRQOOJ3VwnVLbOB-43" value="" style="shape=trapezoid;perimeter=trapezoidPerimeter;whiteSpace=wrap;html=1;fixedSize=1;shadow=1;strokeColor=#666666;align=center;verticalAlign=middle;fontFamily=Helvetica;fontSize=18;fontColor=default;fillColor=#f5f5f5;rotation=90;container=0;" parent="1" vertex="1">
          <mxGeometry x="1580" y="900" width="140" height="100" as="geometry" />
        </mxCell>
        <mxCell id="F4LApp7SRapzV72RJLrX-87" value="&lt;span style=&quot;font-size: 18px;&quot;&gt;00&lt;/span&gt;" style="text;html=1;align=left;verticalAlign=middle;whiteSpace=wrap;rounded=0;container=0;" parent="1" vertex="1">
          <mxGeometry x="1600" y="900" width="30" height="30" as="geometry" />
        </mxCell>
        <mxCell id="F4LApp7SRapzV72RJLrX-88" value="&lt;span style=&quot;font-size: 18px;&quot;&gt;01&lt;/span&gt;" style="text;html=1;align=left;verticalAlign=middle;whiteSpace=wrap;rounded=0;container=0;" parent="1" vertex="1">
          <mxGeometry x="1600" y="940" width="35" height="20" as="geometry" />
        </mxCell>
        <mxCell id="F4LApp7SRapzV72RJLrX-89" value="&lt;span style=&quot;font-size: 18px;&quot;&gt;10&lt;/span&gt;" style="text;html=1;align=left;verticalAlign=middle;whiteSpace=wrap;rounded=0;container=0;" parent="1" vertex="1">
          <mxGeometry x="1600" y="970" width="30" height="30" as="geometry" />
        </mxCell>
        <mxCell id="F4LApp7SRapzV72RJLrX-91" value="&lt;font style=&quot;font-size: 10px;&quot;&gt;ALUresult&lt;/font&gt;" style="text;html=1;align=left;verticalAlign=middle;whiteSpace=wrap;rounded=0;container=0;" parent="1" vertex="1">
          <mxGeometry x="1630" y="910" width="50" height="10" as="geometry" />
        </mxCell>
        <mxCell id="F4LApp7SRapzV72RJLrX-92" value="&lt;font style=&quot;font-size: 10px;&quot;&gt;Data Memory&lt;/font&gt;" style="text;html=1;align=left;verticalAlign=middle;whiteSpace=wrap;rounded=0;container=0;" parent="1" vertex="1">
          <mxGeometry x="1630" y="940" width="70" height="20" as="geometry" />
        </mxCell>
        <mxCell id="F4LApp7SRapzV72RJLrX-93" value="&lt;span style=&quot;font-size: 10px;&quot;&gt;PC+4&lt;/span&gt;" style="text;html=1;align=left;verticalAlign=middle;whiteSpace=wrap;rounded=0;container=0;" parent="1" vertex="1">
          <mxGeometry x="1630" y="975" width="70" height="20" as="geometry" />
        </mxCell>
        <mxCell id="-nASIVS76yrskM6xYjcV-2" value="&lt;h1 style=&quot;margin-top: 0px;&quot;&gt;KHWL_RV32I&lt;/h1&gt;&lt;p&gt;The very first RV32I Design.&lt;br&gt;37 Instructions are operable.&amp;nbsp;&lt;br&gt;&lt;span style=&quot;background-color: transparent;&quot;&gt;CSR&amp;amp;Debug instr. should be added further.&amp;nbsp;&lt;br&gt;&lt;/span&gt;&lt;/p&gt;&lt;div style=&quot;text-align: right;&quot;&gt;2024.12.15(日) ~ 2025.01.05(日)&lt;/div&gt;&lt;p&gt;&lt;/p&gt;" style="text;html=1;whiteSpace=wrap;overflow=hidden;rounded=0;" parent="1" vertex="1">
          <mxGeometry x="1560" y="1100" width="176" height="130" as="geometry" />
        </mxCell>
        <mxCell id="-nASIVS76yrskM6xYjcV-3" value="&lt;font style=&quot;font-size: 14px;&quot;&gt;&lt;b style=&quot;&quot;&gt;강현우&lt;/b&gt;, KHWL2024-2025&lt;/font&gt;" style="text;html=1;align=left;verticalAlign=middle;whiteSpace=wrap;rounded=0;" parent="1" vertex="1">
          <mxGeometry x="1560" y="1090" width="165" height="20" as="geometry" />
        </mxCell>
        <mxCell id="wTCf3CvT70fc92s2WAtQ-12" value="" style="group" vertex="1" connectable="0" parent="1">
          <mxGeometry x="400" y="420" width="200" height="40" as="geometry" />
        </mxCell>
        <mxCell id="wTCf3CvT70fc92s2WAtQ-9" value="&lt;div&gt;J_Aligner&lt;/div&gt;" style="whiteSpace=wrap;html=1;shadow=1;fontSize=18;fillColor=#f5f5f5;strokeColor=#666666;" vertex="1" parent="wTCf3CvT70fc92s2WAtQ-12">
          <mxGeometry width="200" height="40" as="geometry" />
        </mxCell>
        <mxCell id="wTCf3CvT70fc92s2WAtQ-10" value="J_Target" style="text;html=1;align=left;verticalAlign=middle;whiteSpace=wrap;rounded=0;" vertex="1" parent="wTCf3CvT70fc92s2WAtQ-12">
          <mxGeometry y="10" width="50" height="20" as="geometry" />
        </mxCell>
        <mxCell id="wTCf3CvT70fc92s2WAtQ-11" value="ALUresult" style="text;html=1;align=right;verticalAlign=middle;whiteSpace=wrap;rounded=0;" vertex="1" parent="wTCf3CvT70fc92s2WAtQ-12">
          <mxGeometry x="140" y="10" width="60" height="20" as="geometry" />
        </mxCell>
        <mxCell id="wTCf3CvT70fc92s2WAtQ-13" style="edgeStyle=orthogonalEdgeStyle;rounded=0;orthogonalLoop=1;jettySize=auto;html=1;entryX=1;entryY=0.5;entryDx=0;entryDy=0;" edge="1" parent="1" source="F4LApp7SRapzV72RJLrX-85" target="wTCf3CvT70fc92s2WAtQ-11">
          <mxGeometry relative="1" as="geometry">
            <Array as="points">
              <mxPoint x="1540" y="790" />
              <mxPoint x="1540" y="480" />
              <mxPoint x="620" y="480" />
              <mxPoint x="620" y="440" />
            </Array>
          </mxGeometry>
        </mxCell>
        <mxCell id="wTCf3CvT70fc92s2WAtQ-14" value="to PCC" style="edgeLabel;html=1;align=center;verticalAlign=middle;resizable=0;points=[];" vertex="1" connectable="0" parent="wTCf3CvT70fc92s2WAtQ-13">
          <mxGeometry x="-0.8594" relative="1" as="geometry">
            <mxPoint y="-10" as="offset" />
          </mxGeometry>
        </mxCell>
        <mxCell id="wTCf3CvT70fc92s2WAtQ-15" style="edgeStyle=orthogonalEdgeStyle;rounded=0;orthogonalLoop=1;jettySize=auto;html=1;entryX=0;entryY=0.5;entryDx=0;entryDy=0;" edge="1" parent="1" source="wTCf3CvT70fc92s2WAtQ-10" target="jQQxH6LwXFBK_Qau7PEY-26">
          <mxGeometry relative="1" as="geometry">
            <Array as="points">
              <mxPoint x="360" y="440" />
              <mxPoint x="360" y="470" />
              <mxPoint x="200" y="470" />
              <mxPoint x="200" y="400" />
            </Array>
          </mxGeometry>
        </mxCell>
        <mxCell id="wTCf3CvT70fc92s2WAtQ-16" value="" style="group" vertex="1" connectable="0" parent="1">
          <mxGeometry x="380" y="520" width="150" height="240" as="geometry" />
        </mxCell>
        <mxCell id="-hvyRLRQOOJ3VwnVLbOB-1" value="Instruction&lt;div&gt;Decoder&lt;/div&gt;" style="whiteSpace=wrap;html=1;shadow=1;fontSize=18;fillColor=#f5f5f5;strokeColor=#666666;" parent="wTCf3CvT70fc92s2WAtQ-16" vertex="1">
          <mxGeometry width="150" height="240" as="geometry" />
        </mxCell>
        <mxCell id="-hvyRLRQOOJ3VwnVLbOB-2" value="IM_RD" style="text;html=1;align=center;verticalAlign=middle;whiteSpace=wrap;rounded=0;" parent="wTCf3CvT70fc92s2WAtQ-16" vertex="1">
          <mxGeometry y="110" width="40" height="20" as="geometry" />
        </mxCell>
        <mxCell id="-hvyRLRQOOJ3VwnVLbOB-6" value="opcode" style="text;html=1;align=right;verticalAlign=middle;whiteSpace=wrap;rounded=0;" parent="wTCf3CvT70fc92s2WAtQ-16" vertex="1">
          <mxGeometry x="100" y="10" width="50" height="20" as="geometry" />
        </mxCell>
        <mxCell id="-hvyRLRQOOJ3VwnVLbOB-7" value="&lt;div style=&quot;&quot;&gt;&lt;span style=&quot;background-color: transparent;&quot;&gt;rs1&lt;/span&gt;&lt;/div&gt;" style="text;html=1;align=right;verticalAlign=middle;whiteSpace=wrap;rounded=0;" parent="wTCf3CvT70fc92s2WAtQ-16" vertex="1">
          <mxGeometry x="130" y="110" width="20" height="20" as="geometry" />
        </mxCell>
        <mxCell id="-hvyRLRQOOJ3VwnVLbOB-8" value="rs2" style="text;html=1;align=right;verticalAlign=middle;whiteSpace=wrap;rounded=0;" parent="wTCf3CvT70fc92s2WAtQ-16" vertex="1">
          <mxGeometry x="130" y="140" width="20" height="20" as="geometry" />
        </mxCell>
        <mxCell id="-hvyRLRQOOJ3VwnVLbOB-9" value="rd" style="text;html=1;align=right;verticalAlign=middle;whiteSpace=wrap;rounded=0;" parent="wTCf3CvT70fc92s2WAtQ-16" vertex="1">
          <mxGeometry x="130" y="170" width="20" height="20" as="geometry" />
        </mxCell>
        <mxCell id="-hvyRLRQOOJ3VwnVLbOB-10" value="imm" style="text;html=1;align=right;verticalAlign=middle;whiteSpace=wrap;rounded=0;" parent="wTCf3CvT70fc92s2WAtQ-16" vertex="1">
          <mxGeometry x="120" y="210" width="30" height="20" as="geometry" />
        </mxCell>
        <mxCell id="-hvyRLRQOOJ3VwnVLbOB-11" value="funct3" style="text;html=1;align=right;verticalAlign=middle;whiteSpace=wrap;rounded=0;" parent="wTCf3CvT70fc92s2WAtQ-16" vertex="1">
          <mxGeometry x="110" y="40" width="40" height="20" as="geometry" />
        </mxCell>
        <mxCell id="-hvyRLRQOOJ3VwnVLbOB-12" value="funct7" style="text;html=1;align=right;verticalAlign=middle;whiteSpace=wrap;rounded=0;" parent="wTCf3CvT70fc92s2WAtQ-16" vertex="1">
          <mxGeometry x="110" y="60" width="40" height="20" as="geometry" />
        </mxCell>
        <mxCell id="wTCf3CvT70fc92s2WAtQ-32" style="edgeStyle=orthogonalEdgeStyle;rounded=0;orthogonalLoop=1;jettySize=auto;html=1;entryX=0.5;entryY=0;entryDx=0;entryDy=0;" edge="1" parent="1" source="-hvyRLRQOOJ3VwnVLbOB-10" target="laC3dYbV331lfGwgBf-x-16">
          <mxGeometry relative="1" as="geometry" />
        </mxCell>
        <mxCell id="wTCf3CvT70fc92s2WAtQ-34" value="" style="group" vertex="1" connectable="0" parent="1">
          <mxGeometry x="480" y="880" width="160" height="80" as="geometry" />
        </mxCell>
        <mxCell id="laC3dYbV331lfGwgBf-x-15" value="&lt;div&gt;Immediate Generator&lt;/div&gt;" style="whiteSpace=wrap;html=1;shadow=1;fontSize=18;fillColor=#f5f5f5;strokeColor=#666666;" parent="wTCf3CvT70fc92s2WAtQ-34" vertex="1">
          <mxGeometry width="160" height="80" as="geometry" />
        </mxCell>
        <mxCell id="laC3dYbV331lfGwgBf-x-16" value="imm" style="text;html=1;align=center;verticalAlign=middle;whiteSpace=wrap;rounded=0;" parent="wTCf3CvT70fc92s2WAtQ-34" vertex="1">
          <mxGeometry x="60" width="40" height="20" as="geometry" />
        </mxCell>
        <mxCell id="laC3dYbV331lfGwgBf-x-17" value="ex-imm" style="text;html=1;align=right;verticalAlign=middle;whiteSpace=wrap;rounded=0;" parent="wTCf3CvT70fc92s2WAtQ-34" vertex="1">
          <mxGeometry x="57.78" y="60" width="44.44" height="20" as="geometry" />
        </mxCell>
        <mxCell id="wTCf3CvT70fc92s2WAtQ-35" value="" style="group" vertex="1" connectable="0" parent="1">
          <mxGeometry x="1560" y="160" width="100" height="200" as="geometry" />
        </mxCell>
        <mxCell id="laC3dYbV331lfGwgBf-x-27" value="Branch&lt;div&gt;Logic&lt;/div&gt;" style="whiteSpace=wrap;html=1;shadow=1;fontSize=18;fillColor=#f5f5f5;strokeColor=#666666;" parent="wTCf3CvT70fc92s2WAtQ-35" vertex="1">
          <mxGeometry width="100" height="200" as="geometry" />
        </mxCell>
        <mxCell id="laC3dYbV331lfGwgBf-x-28" value="ALUzero" style="text;html=1;align=left;verticalAlign=middle;whiteSpace=wrap;rounded=0;" parent="wTCf3CvT70fc92s2WAtQ-35" vertex="1">
          <mxGeometry y="30" width="50" height="20" as="geometry" />
        </mxCell>
        <mxCell id="laC3dYbV331lfGwgBf-x-42" value="Branch" style="text;html=1;align=left;verticalAlign=middle;whiteSpace=wrap;rounded=0;" parent="wTCf3CvT70fc92s2WAtQ-35" vertex="1">
          <mxGeometry y="50" width="40" height="26.67" as="geometry" />
        </mxCell>
        <mxCell id="s6hKSkpy---ewfnxM8lV-11" value="BTaken" style="text;html=1;align=right;verticalAlign=middle;whiteSpace=wrap;rounded=0;" parent="wTCf3CvT70fc92s2WAtQ-35" vertex="1">
          <mxGeometry x="64.28999999999996" y="50" width="35.71" height="20" as="geometry" />
        </mxCell>
        <mxCell id="q9rqpO51LhmBKndgSOn--34" value="funct3" style="text;html=1;align=left;verticalAlign=middle;whiteSpace=wrap;rounded=0;" parent="wTCf3CvT70fc92s2WAtQ-35" vertex="1">
          <mxGeometry y="170" width="40" height="20" as="geometry" />
        </mxCell>
        <mxCell id="zFS1pn2A8cmfrVWvFFyQ-54" value="" style="group" parent="1" vertex="1" connectable="0">
          <mxGeometry x="720" y="630" width="20" height="90" as="geometry" />
        </mxCell>
        <mxCell id="zFS1pn2A8cmfrVWvFFyQ-55" value="" style="triangle;whiteSpace=wrap;html=1;rotation=90;" parent="zFS1pn2A8cmfrVWvFFyQ-54" vertex="1">
          <mxGeometry x="5" y="75" width="10" height="20" as="geometry" />
        </mxCell>
        <mxCell id="zFS1pn2A8cmfrVWvFFyQ-56" value="" style="edgeStyle=none;orthogonalLoop=1;jettySize=auto;html=1;rounded=0;" parent="zFS1pn2A8cmfrVWvFFyQ-54" edge="1">
          <mxGeometry width="100" relative="1" as="geometry">
            <mxPoint x="10" as="sourcePoint" />
            <mxPoint x="10" y="80" as="targetPoint" />
            <Array as="points" />
          </mxGeometry>
        </mxCell>
        <mxCell id="zFS1pn2A8cmfrVWvFFyQ-57" value="CLK" style="edgeLabel;html=1;align=center;verticalAlign=middle;resizable=0;points=[];" parent="zFS1pn2A8cmfrVWvFFyQ-56" vertex="1" connectable="0">
          <mxGeometry x="-0.0019" relative="1" as="geometry">
            <mxPoint as="offset" />
          </mxGeometry>
        </mxCell>
        <mxCell id="wTCf3CvT70fc92s2WAtQ-38" value="" style="group" vertex="1" connectable="0" parent="1">
          <mxGeometry x="680" y="200" width="160" height="260" as="geometry" />
        </mxCell>
        <mxCell id="-hvyRLRQOOJ3VwnVLbOB-47" value="Control&lt;div&gt;Unit&lt;/div&gt;" style="whiteSpace=wrap;html=1;shadow=1;fontSize=18;fillColor=#f5f5f5;strokeColor=#666666;" parent="wTCf3CvT70fc92s2WAtQ-38" vertex="1">
          <mxGeometry width="160" height="260" as="geometry" />
        </mxCell>
        <mxCell id="-hvyRLRQOOJ3VwnVLbOB-48" value="RegWrite" style="text;html=1;align=center;verticalAlign=middle;whiteSpace=wrap;rounded=0;" parent="wTCf3CvT70fc92s2WAtQ-38" vertex="1">
          <mxGeometry x="105" y="240" width="50" height="20" as="geometry" />
        </mxCell>
        <mxCell id="-hvyRLRQOOJ3VwnVLbOB-49" value="opcode" style="text;html=1;align=left;verticalAlign=middle;whiteSpace=wrap;rounded=0;" parent="wTCf3CvT70fc92s2WAtQ-38" vertex="1">
          <mxGeometry y="40" width="50" height="20" as="geometry" />
        </mxCell>
        <mxCell id="-hvyRLRQOOJ3VwnVLbOB-59" value="ALUop" style="text;html=1;align=center;verticalAlign=middle;whiteSpace=wrap;rounded=0;" parent="wTCf3CvT70fc92s2WAtQ-38" vertex="1">
          <mxGeometry x="120" y="60" width="40" height="20" as="geometry" />
        </mxCell>
        <mxCell id="F4LApp7SRapzV72RJLrX-56" value="MemRead" style="text;html=1;align=center;verticalAlign=middle;whiteSpace=wrap;rounded=0;" parent="wTCf3CvT70fc92s2WAtQ-38" vertex="1">
          <mxGeometry x="100" y="170" width="60" height="20" as="geometry" />
        </mxCell>
        <mxCell id="F4LApp7SRapzV72RJLrX-73" value="MemWrite" style="text;html=1;align=center;verticalAlign=middle;whiteSpace=wrap;rounded=0;" parent="wTCf3CvT70fc92s2WAtQ-38" vertex="1">
          <mxGeometry x="100" y="150" width="60" height="20" as="geometry" />
        </mxCell>
        <mxCell id="laC3dYbV331lfGwgBf-x-33" value="ALUsrcB" style="text;html=1;align=center;verticalAlign=middle;whiteSpace=wrap;rounded=0;" parent="wTCf3CvT70fc92s2WAtQ-38" vertex="1">
          <mxGeometry x="110" y="110" width="50" height="20" as="geometry" />
        </mxCell>
        <mxCell id="laC3dYbV331lfGwgBf-x-37" value="Mem2Reg" style="text;html=1;align=center;verticalAlign=middle;whiteSpace=wrap;rounded=0;" parent="wTCf3CvT70fc92s2WAtQ-38" vertex="1">
          <mxGeometry x="100" y="190" width="60" height="20" as="geometry" />
        </mxCell>
        <mxCell id="laC3dYbV331lfGwgBf-x-40" value="Branch" style="text;html=1;align=center;verticalAlign=middle;whiteSpace=wrap;rounded=0;" parent="wTCf3CvT70fc92s2WAtQ-38" vertex="1">
          <mxGeometry x="120" y="30" width="40" height="20" as="geometry" />
        </mxCell>
        <mxCell id="s6hKSkpy---ewfnxM8lV-1" value="Jump" style="text;html=1;align=center;verticalAlign=middle;whiteSpace=wrap;rounded=0;" parent="wTCf3CvT70fc92s2WAtQ-38" vertex="1">
          <mxGeometry x="120" y="10" width="40" height="20" as="geometry" />
        </mxCell>
        <mxCell id="q9rqpO51LhmBKndgSOn--2" value="ALUsrcA" style="text;html=1;align=center;verticalAlign=middle;whiteSpace=wrap;rounded=0;" parent="wTCf3CvT70fc92s2WAtQ-38" vertex="1">
          <mxGeometry x="110" y="90" width="50" height="20" as="geometry" />
        </mxCell>
      </root>
    </mxGraphModel>
  </diagram>
</mxfile>
